<svg width="200" height="200" viewBox="0 0 200 200" xmlns="http://www.w3.org/2000/svg">
  <!-- Circular Frame -->
  <circle cx="100" cy="85" r="55" fill="none" stroke="#4A5D23" stroke-width="3"/>
  
  <!-- Content inside circle -->
  <!-- Palm Leaf (Left) -->
  <path d="M70,105 Q65,85 75,55 Q80,85 75,105 Z" fill="#4A5D23" opacity="0.8"/>
  <path d="M72,100 Q68,80 73,60" stroke="#fff" stroke-width="0.5" fill="none"/>
  
  <!-- Nuts/Seeds (Top Center) -->
  <ellipse cx="105" cy="55" rx="8" ry="12" fill="#6d4c41" transform="rotate(-30 105 55)"/>
  <ellipse cx="120" cy="58" rx="8" ry="12" fill="#6d4c41" transform="rotate(20 120 58)"/>
  <circle cx="112" cy="75" r="5" fill="#8d6e63"/>
  
  <!-- Sprout (Center) -->
  <path d="M100,105 L100,90" stroke="#8bc34a" stroke-width="2" fill="none"/>
  <path d="M100,95 Q90,85 95,80 Q100,85 100,95Z" fill="#8bc34a"/>
  <path d="M100,95 Q110,85 105,80 Q100,85 100,95Z" fill="#8bc34a"/>
  
  <!-- Wave/Oil Essence (Right) -->
  <path d="M125,55 Q135,85 125,115" stroke="#d7ccc8" stroke-width="8" fill="none" stroke-linecap="round"/>
  <path d="M132,65 Q142,85 132,105" stroke="#efe5e1" stroke-width="4" fill="none" stroke-linecap="round"/>

  <!-- Brand Text -->
  <text x="100" y="160" text-anchor="middle" font-family="Serif, Georgia" font-size="24" font-weight="bold" fill="#4A5D23">Shalini Devi</text>
  <text x="100" y="178" text-anchor="middle" font-family="Arial, Sans-serif" font-size="10" letter-spacing="2" fill="#4A5D23">HEALTH PRODUCTS</text>
  
  <!-- Separator Line -->
  <line x1="50" y1="168" x2="150" y2="168" stroke="#4A5D23" stroke-width="0.5"/>
  
  <!-- Tagline -->
  <text x="100" y="192" text-anchor="middle" font-family="cursive, italic" font-size="8" font-style="italic" fill="#4A5D23">NATURE'S TRADITION. AFFORDABLY YOURS</text>
</svg>
